HIERARCHY
ROOT Hips
{
	OFFSET 0.000000 0.000000 0.000000
	CHANNELS 6 Xposition Yposition Zposition Xrotation Yrotation Zrotation
	JOINT Thigh.L
	{
		OFFSET 0.055641 0.027010 -0.095679
		CHANNELS 3 Xrotation Yrotation Zrotation
		JOINT Shin.L
		{
			OFFSET 0.059955 0.006616 -0.411445
			CHANNELS 3 Xrotation Yrotation Zrotation
			JOINT Foot.L
			{
				OFFSET -0.042164 0.032395 -0.436576
				CHANNELS 3 Xrotation Yrotation Zrotation
				JOINT Toe.L
				{
					OFFSET 0.048322 -0.126560 -0.064022
					CHANNELS 3 Xrotation Yrotation Zrotation
					End Site
					{
						OFFSET 0.000000 0.050000 0.000000
					}
				}
			}
		}
	}
	JOINT Thigh.R
	{
		OFFSET -0.060754 0.021278 -0.108362
		CHANNELS 3 Xrotation Yrotation Zrotation
		JOINT Shin.R
		{
			OFFSET -0.048974 0.014708 -0.392747
			CHANNELS 3 Xrotation Yrotation Zrotation
			JOINT Foot.R
			{
				OFFSET 0.014005 0.020500 -0.445583
				CHANNELS 3 Xrotation Yrotation Zrotation
				JOINT Toe.R
				{
					OFFSET -0.039702 -0.127390 -0.063900
					CHANNELS 3 Xrotation Yrotation Zrotation
					End Site
					{
						OFFSET 0.000000 0.050000 0.000000
					}
				}
			}
		}
	}
	JOINT Spine
	{
		OFFSET -0.002637 0.027630 0.114935
		CHANNELS 3 Xrotation Yrotation Zrotation
		JOINT Spine.2
		{
			OFFSET 0.009274 0.006475 0.143128
			CHANNELS 3 Xrotation Yrotation Zrotation
			JOINT Chest
			{
				OFFSET -0.011033 -0.023820 0.056893
				CHANNELS 3 Xrotation Yrotation Zrotation
				JOINT Neck
				{
					OFFSET -0.012395 0.026168 0.170871
					CHANNELS 3 Xrotation Yrotation Zrotation
					JOINT Head
					{
						OFFSET 0.025627 -0.020482 0.168895
						CHANNELS 3 Xrotation Yrotation Zrotation
						End Site
						{
							OFFSET 0.000000 0.050000 0.000000
						}
					}
				}
				JOINT Clavicle.L
				{
					OFFSET 0.047921 0.004469 0.088052
					CHANNELS 3 Xrotation Yrotation Zrotation
					JOINT UpperArm.L
					{
						OFFSET 0.128574 0.013832 0.058711
						CHANNELS 3 Xrotation Yrotation Zrotation
						JOINT ForeArm.L
						{
							OFFSET 0.269347 0.043543 -0.075318
							CHANNELS 3 Xrotation Yrotation Zrotation
							JOINT Hand.L
							{
								OFFSET 0.272674 0.000536 0.022678
								CHANNELS 3 Xrotation Yrotation Zrotation
								JOINT Thumb1.L
								{
									OFFSET 0.154587 0.000235 0.009946
									CHANNELS 3 Xrotation Yrotation Zrotation
									JOINT Thumb2.L
									{
										OFFSET 0.029897 0.000059 0.002486
										CHANNELS 3 Xrotation Yrotation Zrotation
										End Site
										{
											OFFSET 0.024914 0.000049 0.002072
										}
									}
								}
								JOINT Index1.L
								{
									OFFSET 0.137587 0.000235 0.009946
									CHANNELS 3 Xrotation Yrotation Zrotation
									JOINT Index2.L
									{
										OFFSET 0.029897 0.000059 0.002486
										CHANNELS 3 Xrotation Yrotation Zrotation
										JOINT Index3.L
										{
											OFFSET 0.021924 0.000043 0.001823
											CHANNELS 3 Xrotation Yrotation Zrotation
											End Site
											{
												OFFSET 0.017938 0.000035 0.001492
											}
										}
									}
								}
								JOINT Middle1.L
								{
									OFFSET 0.119587 0.000235 0.009946
									CHANNELS 3 Xrotation Yrotation Zrotation
									JOINT Middle2.L
									{
										OFFSET 0.030893 0.000061 0.002569
										CHANNELS 3 Xrotation Yrotation Zrotation
										JOINT Middle3.L
										{
											OFFSET 0.021924 0.000043 0.001823
											CHANNELS 3 Xrotation Yrotation Zrotation
											End Site
											{
												OFFSET 0.017938 0.000035 0.001492
											}
										}
									}
								}
								JOINT Ring1.L
								{
									OFFSET 0.101587 0.000235 0.009946
									CHANNELS 3 Xrotation Yrotation Zrotation
									JOINT Ring2.L
									{
										OFFSET 0.028900 0.000057 0.002404
										CHANNELS 3 Xrotation Yrotation Zrotation
										JOINT Ring3.L
										{
											OFFSET 0.019931 0.000039 0.001658
											CHANNELS 3 Xrotation Yrotation Zrotation
											End Site
											{
												OFFSET 0.016941 0.000033 0.001409
											}
										}
									}
								}
								JOINT Pinky1.L
								{
									OFFSET 0.085587 0.000235 0.009946
									CHANNELS 3 Xrotation Yrotation Zrotation
									JOINT Pinky2.L
									{
										OFFSET 0.023917 0.000047 0.001989
										CHANNELS 3 Xrotation Yrotation Zrotation
										JOINT Pinky3.L
										{
											OFFSET 0.016941 0.000033 0.001409
											CHANNELS 3 Xrotation Yrotation Zrotation
											End Site
											{
												OFFSET 0.013952 0.000027 0.001160
											}
										}
									}
								}
							}
						}
					}
				}
				JOINT Clavicle.R
				{
					OFFSET -0.049022 0.010628 0.087182
					CHANNELS 3 Xrotation Yrotation Zrotation
					JOINT UpperArm.R
					{
						OFFSET -0.111476 0.010486 0.054800
						CHANNELS 3 Xrotation Yrotation Zrotation
						JOINT ForeArm.R
						{
							OFFSET -0.287822 0.027903 -0.039235
							CHANNELS 3 Xrotation Yrotation Zrotation
							JOINT Hand.R
							{
								OFFSET -0.269008 0.014054 -0.005370
								CHANNELS 3 Xrotation Yrotation Zrotation
								JOINT Thumb1.R
								{
									OFFSET -0.154813 0.006260 -0.002392
									CHANNELS 3 Xrotation Yrotation Zrotation
									JOINT Thumb2.R
									{
										OFFSET -0.029953 0.001565 -0.000598
										CHANNELS 3 Xrotation Yrotation Zrotation
										End Site
										{
											OFFSET -0.024961 0.001304 -0.000498
										}
									}
								}
								JOINT Index1.R
								{
									OFFSET -0.137813 0.006260 -0.002392
									CHANNELS 3 Xrotation Yrotation Zrotation
									JOINT Index2.R
									{
										OFFSET -0.029953 0.001565 -0.000598
										CHANNELS 3 Xrotation Yrotation Zrotation
										JOINT Index3.R
										{
											OFFSET -0.021966 0.001148 -0.000438
											CHANNELS 3 Xrotation Yrotation Zrotation
											End Site
											{
												OFFSET -0.017972 0.000939 -0.000359
											}
										}
									}
								}
								JOINT Middle1.R
								{
									OFFSET -0.119813 0.006260 -0.002392
									CHANNELS 3 Xrotation Yrotation Zrotation
									JOINT Middle2.R
									{
										OFFSET -0.030952 0.001617 -0.000618
										CHANNELS 3 Xrotation Yrotation Zrotation
										JOINT Middle3.R
										{
											OFFSET -0.021966 0.001148 -0.000438
											CHANNELS 3 Xrotation Yrotation Zrotation
											End Site
											{
												OFFSET -0.017972 0.000939 -0.000359
											}
										}
									}
								}
								JOINT Ring1.R
								{
									OFFSET -0.101813 0.006260 -0.002392
									CHANNELS 3 Xrotation Yrotation Zrotation
									JOINT Ring2.R
									{
										OFFSET -0.028955 0.001513 -0.000578
										CHANNELS 3 Xrotation Yrotation Zrotation
										JOINT Ring3.R
										{
											OFFSET -0.019969 0.001043 -0.000399
											CHANNELS 3 Xrotation Yrotation Zrotation
											End Site
											{
												OFFSET -0.016973 0.000887 -0.000339
											}
										}
									}
								}
								JOINT Pinky1.R
								{
									OFFSET -0.085813 0.006260 -0.002392
									CHANNELS 3 Xrotation Yrotation Zrotation
									JOINT Pinky2.R
									{
										OFFSET -0.023963 0.001252 -0.000478
										CHANNELS 3 Xrotation Yrotation Zrotation
										JOINT Pinky3.R
										{
											OFFSET -0.016973 0.000887 -0.000339
											CHANNELS 3 Xrotation Yrotation Zrotation
											End Site
											{
												OFFSET -0.013978 0.000730 -0.000279
											}
										}
									}
								}
							}
						}
					}
				}
			}
		}
	}
}
MOTION
Frames: 7
Frame Time: 0.04166667
-0.002672 -0.040144 1.068037 -4.435857 0.860305 0.605863 4.691931 -3.616728 2.662867 4.604961 3.069138 -11.515909 -9.335183 -1.805673 8.469503 -0.716117 -2.000649 -1.364006 0.534774 2.918198 -2.713379 10.048215 -0.133780 6.361418 -10.037782 -1.273841 -5.764773 -0.622363 -1.284028 0.738605 3.337857 1.064033 2.172832 -0.139213 -0.427391 -1.949739 2.754808 0.509484 -0.357566 6.638673 0.499933 1.376771 5.432991 -1.494460 0.993156 -0.050119 22.931932 -1.571678 24.019333 44.146843 -24.339112 16.829391 -1.842637 -22.523207 -1.104695 1.450571 -7.002189 0.000000 0.000000 0.000000 0.000000 0.000000 0.000000 0.000000 0.000000 0.000000 0.000000 0.000000 0.000000 0.000000 0.000000 0.000000 0.000000 0.000000 0.000000 0.000000 0.000000 0.000000 0.000000 0.000000 0.000000 0.000000 0.000000 0.000000 0.000000 0.000000 0.000000 0.000000 0.000000 0.000000 0.000000 0.000000 0.000000 0.000000 0.000000 0.000000 0.000000 0.000000 0.000000 1.183367 -21.777348 6.778599 27.647609 -45.242828 27.524296 12.512763 1.666730 24.710103 -0.428449 -3.779960 3.562683 0.000000 0.000000 0.000000 0.000000 0.000000 0.000000 0.000000 0.000000 0.000000 0.000000 0.000000 0.000000 0.000000 0.000000 0.000000 0.000000 0.000000 0.000000 0.000000 0.000000 0.000000 0.000000 0.000000 0.000000 0.000000 0.000000 0.000000 0.000000 0.000000 0.000000 0.000000 0.000000 0.000000 0.000000 0.000000 0.000000 0.000000 0.000000 0.000000 0.000000 0.000000 0.000000
-0.002950 -0.040550 1.068068 -4.474519 0.855954 0.587883 4.693964 -3.598208 2.658463 4.666458 3.079868 -11.583694 -9.342702 -1.836142 8.507868 -0.714851 -1.996568 -1.370543 0.595261 2.956117 -2.750996 9.989019 -0.134261 6.424477 -10.019692 -1.342029 -5.743981 -0.622775 -1.277756 0.744075 3.327778 1.101524 2.183721 -0.098136 -0.407509 -1.938837 2.728531 0.518489 -0.342453 6.642562 0.528754 1.363943 5.399962 -1.497130 1.001036 -0.068957 22.957391 -1.558132 24.030193 44.102187 -24.342712 16.802155 -1.844219 -22.564506 -1.071379 1.446627 -6.986830 0.000000 0.000000 0.000000 0.000000 0.000000 0.000000 0.000000 0.000000 0.000000 0.000000 0.000000 0.000000 0.000000 0.000000 0.000000 0.000000 0.000000 0.000000 0.000000 0.000000 0.000000 0.000000 0.000000 0.000000 0.000000 0.000000 0.000000 0.000000 0.000000 0.000000 0.000000 0.000000 0.000000 0.000000 0.000000 0.000000 0.000000 0.000000 0.000000 0.000000 0.000000 0.000000 1.183739 -21.798754 6.770314 27.637609 -45.239610 27.511987 12.493511 1.671233 24.697564 -0.403857 -3.801311 3.536293 0.000000 0.000000 0.000000 0.000000 0.000000 0.000000 0.000000 0.000000 0.000000 0.000000 0.000000 0.000000 0.000000 0.000000 0.000000 0.000000 0.000000 0.000000 0.000000 0.000000 0.000000 0.000000 0.000000 0.000000 0.000000 0.000000 0.000000 0.000000 0.000000 0.000000 0.000000 0.000000 0.000000 0.000000 0.000000 0.000000 0.000000 0.000000 0.000000 0.000000 0.000000 0.000000
-0.002825 -0.040545 1.068066 -4.473989 0.854200 0.575166 4.654820 -3.602037 2.662215 4.741936 3.070202 -11.625799 -9.363904 -1.823876 8.522687 -0.721304 -2.006191 -1.373900 0.590408 2.941290 -2.733132 9.996280 -0.113046 6.434152 -10.030160 -1.340447 -5.738169 -0.627386 -1.286445 0.742107 3.318333 1.125060 2.199069 -0.058363 -0.406875 -1.943956 2.697400 0.524800 -0.331998 6.606774 0.550464 1.317456 5.307464 -1.508159 0.967858 -0.087387 22.977707 -1.551436 24.083333 44.064019 -24.352931 16.759051 -1.896239 -22.575866 -0.996174 1.423707 -6.954464 0.000000 0.000000 0.000000 0.000000 0.000000 0.000000 0.000000 0.000000 0.000000 0.000000 0.000000 0.000000 0.000000 0.000000 0.000000 0.000000 0.000000 0.000000 0.000000 0.000000 0.000000 0.000000 0.000000 0.000000 0.000000 0.000000 0.000000 0.000000 0.000000 0.000000 0.000000 0.000000 0.000000 0.000000 0.000000 0.000000 0.000000 0.000000 0.000000 0.000000 0.000000 0.000000 1.158684 -21.831941 6.773278 27.660714 -45.262192 27.492559 12.491553 1.713500 24.701471 -0.356307 -3.732857 3.522907 0.000000 0.000000 0.000000 0.000000 0.000000 0.000000 0.000000 0.000000 0.000000 0.000000 0.000000 0.000000 0.000000 0.000000 0.000000 0.000000 0.000000 0.000000 0.000000 0.000000 0.000000 0.000000 0.000000 0.000000 0.000000 0.000000 0.000000 0.000000 0.000000 0.000000 0.000000 0.000000 0.000000 0.000000 0.000000 0.000000 0.000000 0.000000 0.000000 0.000000 0.000000 0.000000
-0.002525 -0.040441 1.068050 -4.461985 0.831873 0.600807 4.590514 -3.605282 2.661219 4.836998 3.092098 -11.624323 -9.374248 -1.816587 8.502275 -0.719104 -1.994781 -1.375883 0.588092 2.960290 -2.754095 9.988344 -0.124705 6.405670 -10.054237 -1.355259 -5.734565 -0.638811 -1.274121 0.750455 3.334325 1.154501 2.217890 -0.079236 -0.405527 -1.948757 2.687742 0.524679 -0.319295 6.556051 0.525898 1.301529 5.256208 -1.516195 0.902759 -0.113353 23.013576 -1.530588 24.075396 44.051834 -24.296105 16.703030 -1.964401 -22.628535 -0.922960 1.404555 -6.915932 0.000000 0.000000 0.000000 0.000000 0.000000 0.000000 0.000000 0.000000 0.000000 0.000000 0.000000 0.000000 0.000000 0.000000 0.000000 0.000000 0.000000 0.000000 0.000000 0.000000 0.000000 0.000000 0.000000 0.000000 0.000000 0.000000 0.000000 0.000000 0.000000 0.000000 0.000000 0.000000 0.000000 0.000000 0.000000 0.000000 0.000000 0.000000 0.000000 0.000000 0.000000 0.000000 1.149856 -21.879527 6.768384 27.664678 -45.255427 27.435880 12.542117 1.749724 24.722845 -0.229930 -3.691261 3.517482 0.000000 0.000000 0.000000 0.000000 0.000000 0.000000 0.000000 0.000000 0.000000 0.000000 0.000000 0.000000 0.000000 0.000000 0.000000 0.000000 0.000000 0.000000 0.000000 0.000000 0.000000 0.000000 0.000000 0.000000 0.000000 0.000000 0.000000 0.000000 0.000000 0.000000 0.000000 0.000000 0.000000 0.000000 0.000000 0.000000 0.000000 0.000000 0.000000 0.000000 0.000000 0.000000
-0.002775 -0.040454 1.068036 -4.451242 0.838583 0.577035 4.552113 -3.609442 2.668112 4.884621 3.121735 -11.563147 -9.379013 -1.832282 8.490744 -0.716504 -1.988750 -1.374696 0.574323 2.976529 -2.762709 9.976913 -0.137560 6.370975 -10.051950 -1.390842 -5.695588 -0.641893 -1.264643 0.758894 3.326437 1.186224 2.232864 -0.078260 -0.404080 -1.951876 2.656692 0.531269 -0.306709 6.517256 0.498880 1.289876 5.193211 -1.545654 0.867157 -0.138501 23.018345 -1.513791 24.114695 44.067020 -24.294584 16.696414 -2.013000 -22.636715 -0.897867 1.383752 -6.938757 0.000000 0.000000 0.000000 0.000000 0.000000 0.000000 0.000000 0.000000 0.000000 0.000000 0.000000 0.000000 0.000000 0.000000 0.000000 0.000000 0.000000 0.000000 0.000000 0.000000 0.000000 0.000000 0.000000 0.000000 0.000000 0.000000 0.000000 0.000000 0.000000 0.000000 0.000000 0.000000 0.000000 0.000000 0.000000 0.000000 0.000000 0.000000 0.000000 0.000000 0.000000 0.000000 1.141251 -21.892313 6.769330 27.720422 -45.256536 27.457293 12.572045 1.794786 24.688319 -0.138439 -3.638299 3.530470 0.000000 0.000000 0.000000 0.000000 0.000000 0.000000 0.000000 0.000000 0.000000 0.000000 0.000000 0.000000 0.000000 0.000000 0.000000 0.000000 0.000000 0.000000 0.000000 0.000000 0.000000 0.000000 0.000000 0.000000 0.000000 0.000000 0.000000 0.000000 0.000000 0.000000 0.000000 0.000000 0.000000 0.000000 0.000000 0.000000 0.000000 0.000000 0.000000 0.000000 0.000000 0.000000
-0.002858 -0.040601 1.068028 -4.449617 0.828202 0.529225 4.510944 -3.597834 2.664891 4.953297 3.156564 -11.510327 -9.375643 -1.858575 8.500949 -0.710732 -1.981635 -1.375501 0.551706 3.011284 -2.774616 9.985118 -0.146884 6.366744 -10.062221 -1.430877 -5.655508 -0.636303 -1.249904 0.766263 3.325937 1.224725 2.247415 -0.073308 -0.400275 -1.952269 2.630350 0.540146 -0.289683 6.477646 0.479968 1.338848 5.094501 -1.563368 0.866999 -0.169928 23.016080 -1.488555 24.113570 44.094539 -24.275332 16.675952 -2.047225 -22.629319 -0.887025 1.358318 -6.988428 0.000000 0.000000 0.000000 0.000000 0.000000 0.000000 0.000000 0.000000 0.000000 0.000000 0.000000 0.000000 0.000000 0.000000 0.000000 0.000000 0.000000 0.000000 0.000000 0.000000 0.000000 0.000000 0.000000 0.000000 0.000000 0.000000 0.000000 0.000000 0.000000 0.000000 0.000000 0.000000 0.000000 0.000000 0.000000 0.000000 0.000000 0.000000 0.000000 0.000000 0.000000 0.000000 1.125718 -21.890644 6.769122 27.783009 -45.270751 27.512777 12.594068 1.833349 24.647591 -0.069978 -3.575651 3.568424 0.000000 0.000000 0.000000 0.000000 0.000000 0.000000 0.000000 0.000000 0.000000 0.000000 0.000000 0.000000 0.000000 0.000000 0.000000 0.000000 0.000000 0.000000 0.000000 0.000000 0.000000 0.000000 0.000000 0.000000 0.000000 0.000000 0.000000 0.000000 0.000000 0.000000 0.000000 0.000000 0.000000 0.000000 0.000000 0.000000 0.000000 0.000000 0.000000 0.000000 0.000000 0.000000
-0.002849 -0.040563 1.068012 -4.426504 0.831045 0.455684 4.467746 -3.602341 2.656805 4.991480 3.175787 -11.470625 -9.361320 -1.876310 8.521802 -0.700034 -1.977819 -1.374691 0.508093 3.021916 -2.783468 9.987072 -0.151468 6.378330 -10.070758 -1.466188 -5.592023 -0.624737 -1.244526 0.770290 3.324593 1.240573 2.269405 -0.044449 -0.399314 -1.952330 2.590934 0.544461 -0.278256 6.478797 0.479778 1.378610 4.972461 -1.579016 0.857004 -0.194160 22.992135 -1.471639 24.122451 44.132144 -24.286352 16.633997 -2.053777 -22.575861 -0.893295 1.328023 -7.038946 0.000000 0.000000 0.000000 0.000000 0.000000 0.000000 0.000000 0.000000 0.000000 0.000000 0.000000 0.000000 0.000000 0.000000 0.000000 0.000000 0.000000 0.000000 0.000000 0.000000 0.000000 0.000000 0.000000 0.000000 0.000000 0.000000 0.000000 0.000000 0.000000 0.000000 0.000000 0.000000 0.000000 0.000000 0.000000 0.000000 0.000000 0.000000 0.000000 0.000000 0.000000 0.000000 1.128493 -21.864616 6.777911 27.845751 -45.300368 27.583279 12.583625 1.871798 24.657152 -0.063869 -3.503345 3.597020 0.000000 0.000000 0.000000 0.000000 0.000000 0.000000 0.000000 0.000000 0.000000 0.000000 0.000000 0.000000 0.000000 0.000000 0.000000 0.000000 0.000000 0.000000 0.000000 0.000000 0.000000 0.000000 0.000000 0.000000 0.000000 0.000000 0.000000 0.000000 0.000000 0.000000 0.000000 0.000000 0.000000 0.000000 0.000000 0.000000 0.000000 0.000000 0.000000 0.000000 0.000000 0.000000
